PathFileType	4	(X/Y/Z)	18_2_rein_77_p0_0-458_filt_butterworth.trc
DataRate	CameraRate	NumFrames	NumMarkers	Units	OrigDataRate	OrigDataStartFrame	OrigNumFrames
59.0	59.0	5	27	m	59.0	400	458
Frame#	Time	RHip			RKnee			RAnkle			RBigToe			RSmallToe			RHeel			LHip			LKnee			LAnkle			LBigToe			LSmallToe			LHeel			Neck			Head			Nose			RShoulder			RElbow			RWrist			RThumb			RIndex			RPinky			LShoulder			LElbow			LWrist			LThumb			LIndex			LPinky			
		X1	Y1	Z1	X2	Y2	Z2	X3	Y3	Z3	X4	Y4	Z4	X5	Y5	Z5	X6	Y6	Z6	X7	Y7	Z7	X8	Y8	Z8	X9	Y9	Z9	X10	Y10	Z10	X11	Y11	Z11	X12	Y12	Z12	X13	Y13	Z13	X14	Y14	Z14	X15	Y15	Z15	X16	Y16	Z16	X17	Y17	Z17	X18	Y18	Z18	X19	Y19	Z19	X20	Y20	Z20	X21	Y21	Z21	X22	Y22	Z22	X23	Y23	Z23	X24	Y24	Z24	X25	Y25	Z25	X26	Y26	Z26	X27	Y27	Z27	
400	6.779661016949152	0.242162787669422	0.43041682162432676	1.2324484491414252	0.22827843126857933	0.5373471184924185	1.6471907081080963	0.23859160545082944	0.6079739400011878	2.0274814959032312	0.21015473193544618	0.39584595667342914	2.041403527969799	0.26785015080639235	0.426572218603972	2.043906372903559	0.22596890930321972	0.6850536258909513	2.088718009527202	0.03231478489271477	0.4545454606014366	1.2110008187943546	0.03666504584397724	0.5107958493105142	1.6366039893178261	0.03792536923373798	0.572059123278035	2.026406813635762	0.06698244504142549	0.42421995982784527	2.052171818199349	0.004228732553169003	0.4421936456982654	2.046810348829075	0.05007133778251059	0.6221855262138187	2.061318697293641	0.16244878552247247	0.35254975672545197	0.7061767653875519	0.1853554455701605	0.24662567125877144	0.4646582690817631	0.14804731452984615	0.18327678076258688	0.5984027123884098	0.3032179859994236	0.3141871474344229	0.7896943294956704	0.32618805929819167	0.2818929476680475	1.040552784884293	0.29404995892319336	0.15021205418269626	1.2472559332516369	0.20089496808081833	0.13647225245170885	1.3328653667679493	0.209216074551892	0.15266791249241396	1.3563781135919433	0.25210642982609544	0.16650041160958318	1.3586901806143614	0.022414066968551746	0.38223280581392577	0.7625985793341805	-0.07645272454456503	0.43434120349385785	0.9942324068792853	-0.09946046407519088	0.36033633376332563	1.1922747656471626	-0.0325996981756877	0.3043022178975419	1.2834747093711658	-0.049012764075618206	0.24102126046750827	1.2909504975127122	-0.11386351726186317	0.3275527677907252	1.3092814189785456
401	6.796610169491525	0.24223952670172605	0.4333499591906673	1.2346367109158765	0.2280089329291299	0.5375031506975823	1.6449881582788888	0.23855286722202385	0.608652412517891	2.0275912762623354	0.21015654040587184	0.39586413742262755	2.0415966677227364	0.26778950804977597	0.427253172311737	2.0430388105718262	0.22558596708076226	0.6854554258005382	2.090697879532395	0.03239071684327981	0.45337025342366777	1.212603315592055	0.035729575134569036	0.5114492820909955	1.639528375789435	0.03793638852777686	0.5720085723921408	2.026416984642592	0.06684252443182241	0.42395960806674904	2.0521505136394005	0.004316352817570158	0.4420743712473271	2.0463055775355676	0.049776635972492586	0.6209996506868394	2.062123858297163	0.16239620645495226	0.352289312356621	0.7057419421469764	0.18541009998409722	0.2465187883775427	0.463989820082509	0.1481526641476212	0.18308104438210698	0.5973017341770885	0.30325611806133485	0.3148166166663068	0.7900474234243965	0.32035640488512973	0.2957765625273283	1.0437416000144575	0.30509836429142484	0.15698189540708188	1.2572414702387502	0.21666599245237006	0.1539939052395576	1.3525689041508806	0.22507816516682752	0.16475155156505317	1.37667526723728	0.2729073949073966	0.17588050455688012	1.3726899467407268	0.02244683198092415	0.38281334689137875	0.7635353437126269	-0.07544813155520963	0.4337278212914937	0.9945130843668136	-0.09626617183428868	0.3701736374355495	1.1973205159438254	-0.03328900303475497	0.3040026860736388	1.2896293844922257	-0.04995265161538137	0.24392666127622045	1.2932407676827815	-0.11447580157019048	0.33113869404991353	1.311613040847968
402	6.813559322033898	0.24362675829498637	0.4358795217324453	1.2379986618361025	0.22715801448724315	0.537357822281707	1.6436356330180208	0.23912905623903274	0.6088991162605223	2.027483817347532	0.21017853639164163	0.395855403456729	2.0416774466655196	0.2677257649954612	0.4281341710347396	2.041940719699486	0.2252879429855487	0.6856500224106306	2.091765994199317	0.0324758004884553	0.4523274184549801	1.2154653280888201	0.03490269990895512	0.5124602258435893	1.644470957806812	0.037948848308253964	0.5720014538712781	2.026391748981924	0.06637406698635076	0.42205808861736005	2.0509076756142126	0.004329876455471038	0.4423993128857588	2.046346041533597	0.049891447384033574	0.620584056339901	2.06258901846115	0.16241313067213264	0.351703962775128	0.7046206594462028	0.18544667644738236	0.24658749790638385	0.46397152973094835	0.14825284805488054	0.1827404377493181	0.5961182905035142	0.3032806081163721	0.31540147432064325	0.7899915379760898	0.31782610252172416	0.30465760998639685	1.0460162809272795	0.31147802461716345	0.16126341951927836	1.2634445300908332	0.22602156009621804	0.16789607341869456	1.3654679284657998	0.236932329759942	0.17530043822317257	1.3947417563495623	0.2922314714496066	0.18457687211857268	1.3844143046339634	0.022504883215339066	0.3837258228313783	0.7645523291785705	-0.07509578960537706	0.43269028713822566	0.9943312574671923	-0.09307464170066973	0.3787059584538008	1.2022648261246367	-0.034476298913179465	0.3071323468233796	1.294552915299651	-0.05123345084196178	0.25047731502940723	1.2949378874290811	-0.11484375449450454	0.3353856602452942	1.3137061955865343
403	6.830508474576271	0.2456098101453944	0.43856017314659945	1.2424397897858903	0.22599024798058465	0.5375486959806641	1.6433246977146487	0.24085227961671107	0.6074576923603989	2.0271663181535953	0.21018640019714077	0.3958661880799593	2.041754013461422	0.2676819720650603	0.4287140825522959	2.041110340301118	0.22518944032281946	0.6858289046424285	2.0920503219681374	0.033155585123343156	0.4512647162698042	1.2194844975538854	0.03441426275053751	0.5132276845320956	1.6497212077133443	0.037951166813888174	0.5720187443350354	2.0263421482494284	0.06550867822187639	0.41799078267687534	2.048001128624339	0.00431225392694017	0.44253110698931364	2.046484269189575	0.05002038361158291	0.6205665573802869	2.062652738173922	0.16239921913197536	0.35081812173250454	0.702863562029381	0.18517526090648365	0.2464854149032436	0.4641031718094436	0.1483156951914332	0.18218600411532074	0.5947684236449075	0.3032702417121133	0.3156641860958751	0.7898558242296303	0.3179349599341531	0.30852451647839485	1.0472693963564104	0.31435085673206875	0.16650802208046814	1.2677892615464148	0.23227055368165517	0.18131530654786582	1.3747265887412892	0.24680436745086742	0.19044399993577338	1.4109617237812184	0.30615967581985915	0.1918696047852827	1.3931472823267737	0.02258308452512121	0.3846440754953843	0.7650239091863036	-0.07508015085582431	0.4324263910582202	0.9940896892477119	-0.09020209243134034	0.3867973505113514	1.207630424255996	-0.03488135740598617	0.3182375854704276	1.299366366305049	-0.052340928153033525	0.2621556889256469	1.2978413173793302	-0.11495094006795364	0.338265282906679	1.3154956049008946
404	6.8474576271186445	0.24735889606004446	0.4413738078038974	1.2470592758852435	0.22526085303084126	0.5392033217250716	1.6437236572494351	0.24345339897183368	0.6034130069151795	2.0265157136628216	0.21017926284839797	0.3959234930327479	2.041876401177064	0.26766293879571373	0.42884270922313183	2.0407631593023257	0.225312620631621	0.6862283229432355	2.0927568735203246	0.03484926755566156	0.4497338375303461	1.2241373341769073	0.03430618626976769	0.5135561736648955	1.6535647939563665	0.03794442614488345	0.5720494014818374	2.0263116291672802	0.06464211286674573	0.4136699084863631	2.044738143074726	0.004302622049592689	0.44232757045682863	2.046557390959771	0.05005391278499128	0.6206281072222389	2.062566702676757	0.1623334306414482	0.34990718572910057	0.7009445396423593	0.18431386501102084	0.24602097005729645	0.46418188936336713	0.14834277066896417	0.18147549045353029	0.5931169314324867	0.3032247219721701	0.3155179626855513	0.7897878587674153	0.3202482753982172	0.309245655244639	1.047167710513115	0.3152555610661371	0.17265553841497278	1.270240302244483	0.2382585022301727	0.19608580372604725	1.3817176935985473	0.2557106812409285	0.20934530582442196	1.4222456931643206	0.31435744601883225	0.19711735613046344	1.3965904482166969	0.022647896279458603	0.38525999194304156	0.7650530829114328	-0.07476164024172573	0.43292833649009776	0.9941294459585727	-0.08761530273896251	0.39494894047549617	1.2135193324936562	-0.034510731331069154	0.33412365915879616	1.3039292276231416	-0.05367350628790969	0.28068497154001343	1.3042689116426396	-0.1149574549931176	0.33936540684231603	1.317088507894737
